<svg xmlns="http://www.w3.org/2000/svg" width="900" height="620" viewBox="0 0 900 620">
  <defs>
    <linearGradient id="sky" x1="0" y1="0" x2="1" y2="1">
      <stop offset="0" stop-color="#9bc5ff"/>
      <stop offset="1" stop-color="#6f66d9"/>
    </linearGradient>
  </defs>
  <rect width="900" height="620" rx="36" fill="url(#sky)"/>
  <circle cx="690" cy="140" r="74" fill="#fff1c8" opacity=".9"/>
  <path d="M0 455 190 315l125 96 155-184 230 228 90-79 110 91v153H0Z" fill="#303d67" opacity=".75"/>
  <path d="M0 505 225 360l145 112 150-95 182 128 95-73 103 68v120H0Z" fill="#202941" opacity=".82"/>
  <g transform="translate(335 190)">
    <ellipse cx="115" cy="170" rx="104" ry="127" fill="#eef3ff"/>
    <circle cx="108" cy="79" r="76" fill="#f6f8ff"/>
    <path d="M52 41 17 7l11 72M160 37l43-31-23 72" fill="#a8bfff" stroke="#eff3ff" stroke-width="20" stroke-linejoin="round"/>
    <circle cx="83" cy="73" r="8" fill="#29334e"/><circle cx="137" cy="73" r="8" fill="#29334e"/>
    <path d="m108 87 17 13-19 12-16-13Z" fill="#f0a779"/>
    <path d="M77 131q32 27 66 0" fill="none" stroke="#ccd8f6" stroke-width="9" stroke-linecap="round"/>
    <path d="M12 175q-57 17-20 72 35 36 76 5M213 175q57 17 20 72-35 36-76 5" fill="#dbe5ff"/>
  </g>
  <text x="48" y="72" fill="white" font-family="Arial, sans-serif" font-size="28" font-weight="700">PIGEON SAMPLE</text>
</svg>
